PathFileType	4	(X/Y/Z)	Patient4_TMGait_0pt6_01_right_42.trc.trc
DataRate	CameraRate	NumFrames	NumMarkers	Units	OrigDataRate	OrigDataStartFrame	OrigNumFrames
82.840236686390	82.840236686390	4	33	mm	82.840236686390	18	       141
Frame#	Time	Sacral			L.Shoulder			Chest			R.Shoulder			Neck			R.ASIS			L.ASIS			R.Thigh.Superior			R.Thigh.Lateral			R.Thigh.Inferior			R.Patella			L.Thigh.Superior			L.Thigh.Lateral			L.Thigh.Inferior			L.Patella			L.Shank.Superior			L.Shank.Lateral			L.Shank.Inferior			R.Shank.Superior			R.Shank.Lateral			R.Shank.Inferior			R.Heel			R.Midfoot.Superior			R.Midfoot.Lateral			R.Toe			L.Heel			L.Midfoot.Lateral			L.Midfoot.Superior			L.Toe			L.Elbow			L.Wrist			R.Elbow			R.Wrist			
		X1	Y1	Z1	X2	Y2	Z2	X3	Y3	Z3	X4	Y4	Z4	X5	Y5	Z5	X6	Y6	Z6	X7	Y7	Z7	X8	Y8	Z8	X9	Y9	Z9	X10	Y10	Z10	X11	Y11	Z11	X12	Y12	Z12	X13	Y13	Z13	X14	Y14	Z14	X15	Y15	Z15	X16	Y16	Z16	X17	Y17	Z17	X18	Y18	Z18	X19	Y19	Z19	X20	Y20	Z20	X21	Y21	Z21	X22	Y22	Z22	X23	Y23	Z23	X24	Y24	Z24	X25	Y25	Z25	X26	Y26	Z26	X27	Y27	Z27	X28	Y28	Z28	X29	Y29	Z29	X30	Y30	Z30	X31	Y31	Z31	X32	Y32	Z32	X33	Y33	Z33	

18	50.715214285714	757.749985454434	1001.637865333677	407.229361454466	939.357568376629	1431.993702475697	234.247256755821	1027.321710026936	1369.201613289202	404.918729148627	925.548701459247	1442.373920474593	567.991489582762	900.616827700914	1493.036991692469	384.325952627207	978.153249748572	944.426539879103	539.742409611194	983.118549797836	964.584747827354	264.810190875319	1056.082569543871	774.716438209648	516.190740030967	1017.874356117537	651.396663726202	591.077706396218	1110.458983249727	616.698827034412	514.396333635061	1147.173588796221	532.545653194920	533.852188914056	983.917028440719	735.019773811611	294.194168692543	867.076184747439	638.507362136085	233.875376356773	927.752980600578	547.337552027458	299.622302957391	913.258241647802	481.958223111043	309.772304642575	883.506887912959	415.469400640311	304.381136513478	785.268726247279	304.351036461348	260.572520281110	834.904286698089	193.738366209482	336.049980752711	1129.780613679223	443.067413736734	542.925308371028	1073.029314390653	330.743054768319	605.511021696013	1141.190969756068	243.065760945228	556.018038355536	1047.273946802679	55.462775727409	526.671078133564	1208.477671496744	129.656865607104	568.744984225251	1130.387389298765	52.978425018216	601.453822153909	1332.769182990780	93.818987653900	597.256025907996	704.553329352969	39.484052757501	390.689479058944	777.493364340265	34.460656673056	309.235120577577	860.835329771899	96.362257788222	332.951575988907	988.746771267736	45.312149735726	305.794765990291	1038.528089966103	1103.322962600234	98.611877704778	1293.905309566844	1063.867718226114	115.007587086929	765.336404739882	1143.185166537665	681.455135700657	705.451024587347	893.312544913545	716.815321796936	
19	50.727285714286	758.487970900840	1000.597734978088	408.756260576622	939.201964964299	1430.861219402895	235.264339675008	1027.277690264835	1368.469240094326	405.984988276593	925.430783792659	1441.823013531102	568.934104739122	900.406747608433	1492.010816081016	385.265509374233	978.870652543842	943.094205039930	541.323558952693	983.706663830007	963.819227545578	266.344587548984	1055.718431496125	771.802933865618	518.201564498999	1014.945058822641	648.000736607267	591.039703503896	1108.104424030637	613.292823677302	515.222104069525	1143.227128252499	529.155899642239	533.255832697106	983.137135972224	733.935194666858	295.026609311176	865.536936815233	638.197259866599	234.845060657408	925.612988071739	546.446437016347	300.291734679100	910.580330838850	480.895627373518	310.427334818589	880.142182396234	414.679333380346	304.877444157493	780.574379211582	304.763599784812	260.971521636648	828.958238176635	193.403518934220	336.075064126325	1126.166737647635	439.588310852382	541.712746858528	1069.189192469884	326.784281108271	602.965019555595	1137.800583204826	239.620103613555	553.282575993224	1043.965764559663	53.000567690777	522.119527626216	1205.488559288650	125.940287919606	565.581976642179	1126.592679593521	49.820412426398	597.367925871113	1329.193412471362	88.912551591544	594.248274435139	697.287296587451	39.739762798259	390.517255440333	770.261794408786	34.512312745895	309.200300101446	853.694029421752	96.288650913017	332.921087195440	981.551926396596	44.923384895955	305.812678323706	1038.890367880682	1102.515982081587	99.891556622755	1294.867122489287	1070.607790036772	117.361141352434	763.681554659342	1144.032750508278	682.621337084467	702.643552760626	894.389039335857	717.802673774976	
20	50.739357142857	759.409246718309	999.521819357303	410.612017683558	938.857229013894	1429.703268562301	236.393214733865	1027.239749512097	1367.802596843445	407.105614863855	925.363267626978	1441.223494598564	570.024584084184	900.147699265530	1490.970308341847	386.335557394214	979.867346863617	941.719666799998	542.971562802950	984.348395715995	963.041026130466	267.936056678804	1055.831345813592	768.806448708725	520.205447318357	1012.240960037460	644.590059411514	590.766951084776	1105.933359545251	609.846734504493	515.789088375058	1139.278012549527	525.462498781632	532.280208873668	982.725488077118	732.857494839289	295.901644719122	864.265881561756	637.876906155919	235.979322939626	923.853188487772	545.525962439313	301.018775657730	908.300496790088	479.735982557355	311.196419710485	877.120112221528	413.804704286952	305.484346424618	776.116951902041	305.215009585770	261.479884742810	823.139083140896	193.054035326202	336.158106516655	1122.118040311765	435.739740390051	540.193140595477	1064.408906215775	322.819835342041	600.281905993685	1132.801120927642	235.779802207205	550.301730812835	1037.877095707864	50.766695416298	517.772631388176	1200.116345117137	121.727847745908	562.059987352847	1120.117208840577	46.791590021151	593.402385198646	1323.144564003935	83.010378883022	590.887036778668	690.024301191901	40.059228966933	390.325197554841	763.041810509111	34.592799961717	309.162731137563	846.577591339830	96.240537767040	332.888161526287	974.373173143298	44.493628907576	305.822247138054	1038.877417460927	1101.524517722273	101.335503925227	1295.182892279632	1076.212132465443	119.746853569301	762.896814558767	1144.231588128594	683.851267871509	701.455545084643	894.581257199127	718.789421200445	
21	50.751428571429	760.506159269944	998.449066869078	412.775988680902	938.348933302229	1428.552939356469	237.646475267217	1027.233672744759	1367.215411776811	408.287985010792	925.381517792332	1440.586555846885	571.278686201814	899.872980377280	1489.949956160676	387.549613742516	981.127285218761	940.339115463252	544.661253161444	985.014726240656	962.250905154528	269.565626193306	1056.363272135280	765.743975848776	522.121097063427	1009.758637584874	641.262212408022	590.306593697257	1103.869228605782	606.411279446673	516.058842777069	1135.304119792934	521.579955882786	530.942215263140	982.638798577627	731.808882149894	296.808901847526	863.245870701373	637.557208510952	237.274959736617	922.463584913544	544.592652138947	301.810063768267	906.427026790015	478.487588337160	312.067892708114	874.423898127848	412.863308912258	306.203797562126	771.884568328862	305.723699640267	262.104187789030	817.440203860346	192.711744348440	336.306486617873	1117.720039254901	431.666825880222	538.437146921754	1058.962243409364	318.920713368944	597.612501776800	1126.575460136456	231.686379247574	547.202492849595	1029.658206572060	48.700969415817	513.860067491079	1192.893033716196	117.266132809874	558.317230184963	1111.649156235787	43.996862024836	589.751662075225	1315.251698247411	76.604935654238	587.275715665941	682.764515379965	40.473735257576	390.119714074921	755.834058051039	34.714303355551	309.124774373772	839.498728769591	96.225646029729	332.848143942371	967.213641425189	44.020464591588	305.821105649405	1038.463874803474	1100.359660026402	102.936345489690	1294.906987453551	1080.626860679175	122.142434921544	763.001744704615	1143.786058799751	685.164273028086	701.877243302495	893.911917743340	719.791467811460	
